<svg version="1.2" xmlns="http://www.w3.org/2000/svg" viewBox="0 0 16 16" width="16" height="16">
	<style>
		.s0 { fill: #ffffff } 
		.s1 { fill: #000000 } 
	</style>
	<path id="Forma 1" fill-rule="evenodd" class="s0" d="m8 0c4.42 0 8 3.58 8 8 0 4.42-3.58 8-8 8-4.42 0-8-3.58-8-8 0-4.42 3.58-8 8-8z"/>
	<path id="./" class="s1" aria-label="./"  d="m3.3 12.2q0-0.4 0.3-0.6 0.2-0.3 0.6-0.3 0.4 0 0.7 0.2 0.3 0.3 0.3 0.7 0 0.4-0.3 0.6-0.2 0.3-0.7 0.3-0.4 0-0.6-0.3-0.3-0.2-0.3-0.6zm9.7-8.9l-5.6 10.5h-1.3l5.6-10.5z"/>
</svg>